<?xml version="1.0" encoding="utf-8"?>
<!-- Generator: Adobe Illustrator 23.0.3, SVG Export Plug-In . SVG Version: 6.00 Build 0)  -->
<svg version="1.1" id="Layer_1" xmlns="http://www.w3.org/2000/svg" xmlns:xlink="http://www.w3.org/1999/xlink" x="0px" y="0px"
	 viewBox="0 0 1920 1080" style="enable-background:new 0 0 1920 1080;" xml:space="preserve">
<style type="text/css">
	.st0{fill:url(#SVGID_1_);}
</style>
<linearGradient id="SVGID_1_" gradientUnits="userSpaceOnUse" x1="106.5226" y1="511.193" x2="1772.0527" y2="595.9076">
	<stop  offset="1.385225e-07" style="stop-color:#FFFFFF"/>
	<stop  offset="0.5709" style="stop-color:#6AAFFF"/>
</linearGradient>
<path class="st0" d="M701.4,33.1l585.4,1013.7h-50.6L701.5,119.4l-534.9,927.4H116L701.4,33.1z M349.3,1046.9h50.5l301.5-522.1
	l301.6,522.1h50.6L701.4,438.6L349.3,1046.9z M1501.2,48.4c70.2,13.5,289.3,76.3,302.8,333c0,255.4-213.3,328.2-213.3,328.2
	l193,337.1h-45.8l-207.2-365.2c0,0,221.6-29.5,233.1-300.4C1737.5,112.1,1499,88.9,1499,88.9H840.7l-25.4-40.5
	C815.3,48.4,1431,34.9,1501.2,48.4z M932,251.1l25.2,40.7h527.2c0,0,76.7,28.8,73.4,98.5s-64.8,97.7-64.8,97.7h-422.6l24,42.2h390.4
	c0,0,116.7-22.1,116.7-139.5s-116.9-139.5-116.9-139.5H932z M1185.3,692.1l25.4,40.2h110.8l183.2,314.5h45.5l-202.6-354.7H1185.3z"
	/>
</svg>
